# xmcd
#
# Track frame offsets:
# 225
# 11725
# 25937
# 37753
# 52630
# 66660
# 75982
# 89677
# 104961
# 113302
# 126896
# 130785
# 143243
# 155526
# 162859
# 172023
# 183275
# 193932
# 207786
# 213409
#
# Disc length: 2904 seconds
#
#
# Revision: 0
# Processed by: cddbd v1.5.1PL2 Copyright (c) Steve Scherf et al.
# Submitted via: FreeRIP 2.942 
#
DISCID=140b5514
DTITLE=Monty Pièusùv létající pes - Sam na cestach
DYEAR=2002
DGENRE=Blues
TTITLE0=Prselo je po desti
TTITLE1=Do sedivejch dnu
TTITLE2=Veci se stanou
TTITLE3=Vsechno co reknes
TTITLE4=Svoji kuzi neprodavas
TTITLE5=Smutnej chlapec
TTITLE6=10 let na mori
TTITLE7=Procpak
TTITLE8=Osamelej jezdec
TTITLE9=Jen more vi
TTITLE10=Skoncil jsem v hospode
TTITLE11=Sam na cestach
TTITLE12=Desperat
TTITLE13=Vzal jsem si zenu
TTITLE14=Zbehl jsem
TTITLE15=Nechci jit spat
TTITLE16=Ruska balada
TTITLE17=Tak to jsem ja
TTITLE18=Prestan pit
TTITLE19=Skoncil jsem v H.
EXTD=
EXTT0=
EXTT1=
EXTT2=
EXTT3=
EXTT4=
EXTT5=
EXTT6=
EXTT7=
EXTT8=
EXTT9=
EXTT10=
EXTT11=
EXTT12=
EXTT13=
EXTT14=
EXTT15=
EXTT16=
EXTT17=
EXTT18=
EXTT19=
PLAYORDER=
